<?xml version="1.0" standalone="no"?>
<!DOCTYPE svg PUBLIC "-//W3C//DTD SVG 20010904//EN"
 "http://www.w3.org/TR/2001/REC-SVG-20010904/DTD/svg10.dtd">
<svg version="1.0" xmlns="http://www.w3.org/2000/svg"
 width="512.000000pt" height="512.000000pt" viewBox="0 0 512.000000 512.000000"
 preserveAspectRatio="xMidYMid meet">
<metadata>
Created by potrace 1.11, written by Peter Selinger 2001-2013
</metadata>
<g transform="translate(0.000000,512.000000) scale(0.100000,-0.100000)"
fill="#000000" stroke="none">
<path d="M375 5101 c-157 -45 -283 -161 -347 -320 l-23 -56 -2 -2135 c-1
-1330 1 -2154 7 -2185 35 -179 209 -356 388 -394 38 -8 652 -11 2170 -11 1754
0 2126 3 2168 14 171 45 317 190 368 365 15 50 16 260 14 2200 l-3 2146 -23
56 c-47 116 -140 224 -241 277 -122 66 27 62 -2301 61 -1969 0 -2119 -2 -2175
-18z"/>
</g>
</svg>
